<svg width="72" height="53" viewBox="0 0 72 53" fill="none" xmlns="http://www.w3.org/2000/svg">
<line y1="25.5" x2="7" y2="25.5" stroke="#FFE032"/>
<line x1="26.5" y1="7" x2="26.5" stroke="#FFE032"/>
<rect x="0.5" y="0.5" width="52" height="52" stroke="#FFE032"/>
<line x1="26" y1="53" x2="26" y2="45.7255" stroke="#FFE032"/>
<line x1="45.7266" y1="26" x2="53.0011" y2="26" stroke="#FFE032"/>
<path d="M62.0935 29.6502C61.1895 29.6492 60.3227 29.2896 59.6834 28.6503C59.0442 28.0111 58.6846 27.1443 58.6836 26.2402C58.6836 24.3602 60.2135 22.8303 62.0935 22.8303C63.9735 22.8303 65.5034 24.3602 65.5034 26.2402C65.5034 28.1203 63.9735 29.6502 62.0935 29.6502Z" fill="#FFE032"/>
<path fill-rule="evenodd" clip-rule="evenodd" d="M62.0933 19.4204C62.1938 19.4204 62.2901 19.4603 62.3612 19.5314C62.4323 19.6024 62.4722 19.6988 62.4722 19.7993V21.3148C62.4722 21.4153 62.4323 21.5117 62.3612 21.5827C62.2901 21.6538 62.1938 21.6937 62.0933 21.6937C61.9928 21.6937 61.8964 21.6538 61.8254 21.5827C61.7543 21.5117 61.7144 21.4153 61.7144 21.3148V19.7993C61.7144 19.6988 61.7543 19.6024 61.8254 19.5314C61.8964 19.4603 61.9928 19.4204 62.0933 19.4204ZM66.6399 26.2403C66.6399 26.1398 66.6798 26.0434 66.7508 25.9724C66.8219 25.9013 66.9183 25.8614 67.0187 25.8614H68.5343C68.6347 25.8614 68.7311 25.9013 68.8022 25.9724C68.8732 26.0434 68.9131 26.1398 68.9131 26.2403C68.9131 26.3407 68.8732 26.4371 68.8022 26.5082C68.7311 26.5792 68.6347 26.6191 68.5343 26.6191H67.0187C66.9183 26.6191 66.8219 26.5792 66.7508 26.5082C66.6798 26.4371 66.6399 26.3407 66.6399 26.2403ZM55.2734 26.2403C55.2734 26.1398 55.3134 26.0434 55.3844 25.9724C55.4555 25.9013 55.5518 25.8614 55.6523 25.8614H57.1678C57.2683 25.8614 57.3647 25.9013 57.4358 25.9724C57.5068 26.0434 57.5467 26.1398 57.5467 26.2403C57.5467 26.3407 57.5068 26.4371 57.4358 26.5082C57.3647 26.5792 57.2683 26.6191 57.1678 26.6191H55.6523C55.5518 26.6191 55.4555 26.5792 55.3844 26.5082C55.3134 26.4371 55.2734 26.3407 55.2734 26.2403ZM62.0933 30.7868C62.1938 30.7868 62.2901 30.8267 62.3612 30.8978C62.4323 30.9689 62.4722 31.0652 62.4722 31.1657V32.6812C62.4722 32.7817 62.4323 32.8781 62.3612 32.9491C62.2901 33.0202 62.1938 33.0601 62.0933 33.0601C61.9928 33.0601 61.8964 33.0202 61.8254 32.9491C61.7543 32.8781 61.7144 32.7817 61.7144 32.6812V31.1657C61.7144 31.0652 61.7543 30.9689 61.8254 30.8978C61.8964 30.8267 61.9928 30.7868 62.0933 30.7868ZM66.9081 21.4254C66.9434 21.4606 66.9714 21.5025 66.9905 21.5485C67.0096 21.5945 67.0194 21.6439 67.0194 21.6937C67.0194 21.7435 67.0096 21.7929 66.9905 21.8389C66.9714 21.8849 66.9434 21.9267 66.9081 21.9619L65.7715 23.0986C65.7003 23.1697 65.6038 23.2097 65.5032 23.2097C65.4026 23.2097 65.3061 23.1697 65.235 23.0986C65.1638 23.0274 65.1239 22.9309 65.1239 22.8303C65.1239 22.7297 65.1638 22.6332 65.235 22.5621L66.3716 21.4254C66.4068 21.3902 66.4486 21.3622 66.4946 21.3431C66.5407 21.324 66.59 21.3141 66.6399 21.3141C66.6897 21.3141 66.739 21.324 66.7851 21.3431C66.8311 21.3622 66.8729 21.3902 66.9081 21.4254ZM58.9516 29.3819C58.9869 29.4171 59.0149 29.4589 59.034 29.505C59.0531 29.551 59.0629 29.6004 59.0629 29.6502C59.0629 29.7 59.0531 29.7494 59.034 29.7954C59.0149 29.8414 58.9869 29.8832 58.9516 29.9184L57.815 31.0551C57.7438 31.1262 57.6473 31.1662 57.5467 31.1662C57.4461 31.1662 57.3496 31.1262 57.2785 31.0551C57.2073 30.9839 57.1674 30.8874 57.1674 30.7868C57.1674 30.6862 57.2073 30.5897 57.2785 30.5186L58.4151 29.3819C58.4503 29.3467 58.4921 29.3187 58.5382 29.2996C58.5842 29.2805 58.6335 29.2706 58.6834 29.2706C58.7332 29.2706 58.7825 29.2805 58.8286 29.2996C58.8746 29.3187 58.9164 29.3467 58.9516 29.3819ZM57.2785 21.4254C57.3137 21.3902 57.3555 21.3622 57.4015 21.3431C57.4475 21.324 57.4969 21.3141 57.5467 21.3141C57.5966 21.3141 57.6459 21.324 57.6919 21.3431C57.738 21.3622 57.7798 21.3902 57.815 21.4254L58.9516 22.5621C59.0228 22.6332 59.0627 22.7297 59.0627 22.8303C59.0627 22.9309 59.0228 23.0274 58.9516 23.0986C58.8805 23.1697 58.784 23.2097 58.6834 23.2097C58.5828 23.2097 58.4863 23.1697 58.4151 23.0986L57.2785 21.9619C57.2432 21.9267 57.2152 21.8849 57.1961 21.8389C57.177 21.7929 57.1672 21.7435 57.1672 21.6937C57.1672 21.6439 57.177 21.5945 57.1961 21.5485C57.2152 21.5025 57.2432 21.4606 57.2785 21.4254ZM65.235 29.3819C65.2702 29.3467 65.312 29.3187 65.358 29.2996C65.404 29.2805 65.4534 29.2706 65.5032 29.2706C65.5531 29.2706 65.6024 29.2805 65.6484 29.2996C65.6945 29.3187 65.7363 29.3467 65.7715 29.3819L66.9081 30.5186C66.9433 30.5538 66.9713 30.5956 66.9903 30.6417C67.0094 30.6877 67.0192 30.737 67.0192 30.7868C67.0192 30.8366 67.0094 30.886 66.9903 30.932C66.9713 30.978 66.9433 31.0199 66.9081 31.0551C66.8729 31.0903 66.8311 31.1182 66.785 31.1373C66.739 31.1564 66.6897 31.1662 66.6399 31.1662C66.59 31.1662 66.5407 31.1564 66.4947 31.1373C66.4487 31.1182 66.4068 31.0903 66.3716 31.0551L65.235 29.9184C65.1997 29.8832 65.1717 29.8414 65.1526 29.7954C65.1335 29.7494 65.1237 29.7 65.1237 29.6502C65.1237 29.6004 65.1335 29.551 65.1526 29.505C65.1717 29.4589 65.1997 29.4171 65.235 29.3819Z" fill="#FFE032"/>
</svg>
