<svg width="80" height="80" viewBox="0 0 80 80" fill="none" xmlns="http://www.w3.org/2000/svg">
<circle cx="40" cy="40" r="40" fill="#2AB263"/>
<path d="M55.2 26.7778H49.177L45.7 23H34.3L30.823 26.7778H24.8C23.7922 26.7778 22.8256 27.1758 22.113 27.8843C21.4004 28.5927 21 29.5536 21 30.5556V53.2222C21 54.2241 21.4004 55.185 22.113 55.8935C22.8256 56.602 23.7922 57 24.8 57H55.2C56.2078 57 57.1744 56.602 57.887 55.8935C58.5996 55.185 59 54.2241 59 53.2222V30.5556C59 29.5536 58.5996 28.5927 57.887 27.8843C57.1744 27.1758 56.2078 26.7778 55.2 26.7778ZM55.2 53.2222H24.8V30.5556H32.495L35.972 26.7778H44.028L47.505 30.5556H55.2V53.2222ZM40 32.4444C37.4804 32.4444 35.0641 33.4395 33.2825 35.2107C31.5009 36.9818 30.5 39.3841 30.5 41.8889C30.5 44.3937 31.5009 46.7959 33.2825 48.5671C35.0641 50.3383 37.4804 51.3333 40 51.3333C42.5196 51.3333 44.9359 50.3383 46.7175 48.5671C48.4991 46.7959 49.5 44.3937 49.5 41.8889C49.5 39.3841 48.4991 36.9818 46.7175 35.2107C44.9359 33.4395 42.5196 32.4444 40 32.4444ZM40 47.5556C38.4883 47.5556 37.0384 46.9585 35.9695 45.8958C34.9005 44.8331 34.3 43.3918 34.3 41.8889C34.3 40.386 34.9005 38.9447 35.9695 37.8819C37.0384 36.8192 38.4883 36.2222 40 36.2222C41.5117 36.2222 42.9616 36.8192 44.0305 37.8819C45.0995 38.9447 45.7 40.386 45.7 41.8889C45.7 43.3918 45.0995 44.8331 44.0305 45.8958C42.9616 46.9585 41.5117 47.5556 40 47.5556Z" fill="white"/>
</svg>
