<svg width="310" height="167" viewBox="0 0 310 167" fill="none" xmlns="http://www.w3.org/2000/svg">
<path d="M141.111 0.595703L309.455 12.348L265.304 30.4528L74.4092 18.3829L141.111 0.595703Z" fill="#858383"/>
<path d="M85.6592 30.5957L254.003 42.0304V164.953L85.6592 143.989V30.5957Z" fill="url(#paint0_linear_1289_3547)"/>
<path d="M264.49 30.2682L308.958 11.8457V129.369L264.49 165.896V30.2682Z" fill="#6B6B6B"/>
<path fill-rule="evenodd" clip-rule="evenodd" d="M264.987 30.7987L74.4092 18.4111V144.999L264.987 166.109V30.7987ZM253.666 41.9161L85.3223 30.4814V143.875L253.666 164.839V41.9161Z" fill="#E7E7E7"/>
<path d="M193.148 163.158L193.043 150.405L254.227 156.018L254.279 163.521L193.148 163.158Z" fill="#26272B"/>
<path d="M2.08233 134.901L193.059 150.404L193.147 163.158L1.55758 147.275L2.08233 134.901Z" fill="url(#paint1_linear_1289_3547)"/>
<defs>
<linearGradient id="paint0_linear_1289_3547" x1="169.831" y1="164.953" x2="169.831" y2="30.5957" gradientUnits="userSpaceOnUse">
<stop stop-color="#2B2C30"/>
<stop offset="1" stop-color="#868A96"/>
</linearGradient>
<linearGradient id="paint1_linear_1289_3547" x1="182.27" y1="141.596" x2="-8.27749" y2="122.401" gradientUnits="userSpaceOnUse">
<stop offset="0.555" stop-color="#696A6F"/>
<stop offset="1" stop-color="#ADAFBB"/>
</linearGradient>
</defs>
</svg>
