<svg width="216" height="34" viewBox="0 0 216 34" fill="none" xmlns="http://www.w3.org/2000/svg">
<rect opacity="0.25" width="216" height="34" rx="17" fill="black"/>
<path d="M50.2031 9.14844C51.334 9.14844 52.3125 9.26562 53.1387 9.5C53.9707 9.73438 54.6094 10.0742 55.0547 10.5195C55.5 10.9648 55.7227 11.498 55.7227 12.1191C55.7227 12.7285 55.5 13.2529 55.0547 13.6924C54.6094 14.126 53.9707 14.46 53.1387 14.6943C52.3125 14.9229 51.334 15.0371 50.2031 15.0371C49.0723 15.0371 48.0908 14.9229 47.2588 14.6943C46.4268 14.46 45.7852 14.126 45.334 13.6924C44.8887 13.2529 44.666 12.7285 44.666 12.1191C44.666 11.498 44.8887 10.9648 45.334 10.5195C45.7852 10.0742 46.4268 9.73438 47.2588 9.5C48.0908 9.26562 49.0723 9.14844 50.2031 9.14844ZM50.2031 10.2559C49.3652 10.2559 48.6357 10.332 48.0146 10.4844C47.3936 10.6309 46.916 10.8447 46.582 11.126C46.248 11.4072 46.084 11.7383 46.0898 12.1191C46.084 12.4941 46.2451 12.8193 46.5732 13.0947C46.9072 13.3643 47.3848 13.5723 48.0059 13.7188C48.627 13.8652 49.3594 13.9414 50.2031 13.9473C51.0352 13.9414 51.7588 13.8652 52.374 13.7188C52.9951 13.5723 53.4727 13.3643 53.8066 13.0947C54.1465 12.8193 54.3164 12.4941 54.3164 12.1191C54.3164 11.7383 54.1465 11.4072 53.8066 11.126C53.4727 10.8447 52.9951 10.6309 52.374 10.4844C51.7529 10.332 51.0293 10.2559 50.2031 10.2559ZM55.582 24.2129H44.8242V19.0801H55.582V24.2129ZM46.1953 23.0879H54.2285V20.1875H46.1953V23.0879ZM57.3223 17.5332H43.084V16.3906H57.3223V17.5332ZM64.1777 11.0645C64.1719 11.8145 64.3359 12.5293 64.6699 13.209C65.0039 13.8887 65.4697 14.4863 66.0674 15.002C66.6709 15.5176 67.3594 15.9102 68.1328 16.1797L67.4297 17.2695C66.5215 16.9414 65.7246 16.4521 65.0391 15.8018C64.3535 15.1514 63.835 14.3926 63.4834 13.5254C63.1436 14.4512 62.625 15.2656 61.9277 15.9688C61.2363 16.666 60.4336 17.1934 59.5195 17.5508L58.7988 16.4609C59.5723 16.1738 60.2578 15.7578 60.8555 15.2129C61.459 14.6621 61.9277 14.0264 62.2617 13.3057C62.6016 12.585 62.7715 11.8379 62.7715 11.0645V9.57031H64.1777V11.0645ZM71.543 24.4238H70.1719V20.1348H61.0312V18.9922H71.543V24.4238ZM71.543 18.2188H70.1719V8.79688H71.543V18.2188ZM81.3164 9.07812C82.4766 9.07812 83.4697 9.18359 84.2959 9.39453C85.1221 9.59961 85.752 9.9043 86.1855 10.3086C86.6191 10.707 86.8359 11.1934 86.8359 11.7676C86.8359 12.6465 86.3555 13.3203 85.3945 13.7891C84.4336 14.2578 83.0742 14.498 81.3164 14.5098C80.1562 14.5039 79.1602 14.3955 78.3281 14.1846C77.502 13.9736 76.8691 13.666 76.4297 13.2617C75.9961 12.8516 75.7793 12.3535 75.7793 11.7676C75.7793 11.1934 75.9961 10.707 76.4297 10.3086C76.8691 9.9043 77.502 9.59961 78.3281 9.39453C79.1602 9.18359 80.1562 9.07812 81.3164 9.07812ZM81.3164 10.1152C80.4551 10.1152 79.7168 10.1826 79.1016 10.3174C78.4863 10.4463 78.0176 10.6367 77.6953 10.8887C77.373 11.1348 77.2148 11.4277 77.2207 11.7676C77.2148 12.3066 77.5693 12.7227 78.2842 13.0156C78.999 13.3086 80.0098 13.4551 81.3164 13.4551C82.6172 13.4551 83.6279 13.3086 84.3486 13.0156C85.0693 12.7227 85.4297 12.3066 85.4297 11.7676C85.4297 11.4277 85.2656 11.1348 84.9375 10.8887C84.6094 10.6426 84.1377 10.4521 83.5225 10.3174C82.9072 10.1826 82.1719 10.1152 81.3164 10.1152ZM88.4355 16.6895H74.1973V15.5645H88.4355V16.6895ZM86.6074 21.541H77.3262V23.1582H87.082V24.248H75.9551V20.5215H85.2539V19.0977H75.9199V18.043H86.6074V21.541ZM103.342 11.1875H99.8613C99.8672 11.6035 100.04 11.9932 100.38 12.3564C100.72 12.7197 101.18 13.0303 101.76 13.2881C102.346 13.5459 102.996 13.7305 103.711 13.8418L103.219 14.8613C102.275 14.7031 101.452 14.4277 100.749 14.0352C100.052 13.6367 99.5361 13.1504 99.2021 12.5762C98.874 13.1797 98.3555 13.6953 97.6465 14.123C96.9434 14.5449 96.1172 14.8438 95.168 15.0195L94.6758 14.0176C95.3906 13.8945 96.0381 13.6953 96.6182 13.4199C97.1982 13.1445 97.6553 12.8135 97.9893 12.4268C98.3291 12.04 98.502 11.627 98.5078 11.1875H95.0449V10.1504H98.5078V8.76172H99.8613V10.1504H103.342V11.1875ZM99.8613 15.9863C101.461 15.9102 102.873 15.7871 104.098 15.6172L104.186 16.584C102.855 16.8066 101.452 16.959 99.9756 17.041C98.499 17.123 96.9668 17.1641 95.3789 17.1641H94.4297L94.2539 16.0918C95.8652 16.0918 97.2832 16.0742 98.5078 16.0391V14.2988H99.8613V15.9863ZM106.471 21.7344H97.6992V23.1934H107.068V24.248H96.3281V20.7324H105.1V19.4141H96.293V18.377H106.471V21.7344ZM106.471 12.5762H108.809V13.7188H106.471V17.6914H105.082V8.79688H106.471V12.5762ZM114.135 9.74609C114.785 9.74023 115.383 9.85449 115.928 10.0889C116.479 10.3174 116.936 10.6426 117.299 11.0645H121.395V8.79688H122.783V18.0605H121.395V15.8281H117.308C116.938 16.25 116.479 16.5781 115.928 16.8125C115.383 17.041 114.785 17.1523 114.135 17.1465C113.361 17.1523 112.667 17 112.052 16.6895C111.437 16.373 110.953 15.9336 110.602 15.3711C110.25 14.8086 110.074 14.1699 110.074 13.4551C110.074 12.7344 110.25 12.0928 110.602 11.5303C110.953 10.9619 111.437 10.5225 112.052 10.2119C112.667 9.89551 113.361 9.74023 114.135 9.74609ZM114.135 10.9414C113.607 10.9355 113.136 11.041 112.72 11.2578C112.304 11.4688 111.979 11.7676 111.744 12.1543C111.51 12.5352 111.393 12.9688 111.393 13.4551C111.393 13.9355 111.51 14.3662 111.744 14.7471C111.979 15.1279 112.304 15.4268 112.72 15.6436C113.136 15.8604 113.607 15.9688 114.135 15.9688C114.645 15.9688 115.104 15.8604 115.515 15.6436C115.931 15.4268 116.256 15.1279 116.49 14.7471C116.725 14.3662 116.842 13.9355 116.842 13.4551C116.842 12.9688 116.725 12.5352 116.49 12.1543C116.256 11.7676 115.931 11.4688 115.515 11.2578C115.104 11.041 114.645 10.9355 114.135 10.9414ZM117.598 18.4297C118.676 18.4297 119.607 18.5469 120.393 18.7812C121.178 19.0156 121.781 19.3555 122.203 19.8008C122.625 20.2461 122.836 20.7793 122.836 21.4004C122.836 22.0273 122.625 22.5635 122.203 23.0088C121.781 23.46 121.178 23.8027 120.393 24.0371C119.607 24.2715 118.676 24.3887 117.598 24.3887C116.514 24.3887 115.579 24.2715 114.794 24.0371C114.009 23.8027 113.405 23.46 112.983 23.0088C112.567 22.5635 112.359 22.0273 112.359 21.4004C112.359 20.7793 112.567 20.2461 112.983 19.8008C113.405 19.3555 114.009 19.0156 114.794 18.7812C115.585 18.5469 116.52 18.4297 117.598 18.4297ZM117.598 19.502C116.807 19.502 116.118 19.5781 115.532 19.7305C114.946 19.8828 114.495 20.1025 114.179 20.3896C113.868 20.6768 113.713 21.0137 113.713 21.4004C113.713 21.7871 113.868 22.124 114.179 22.4111C114.495 22.6924 114.946 22.9062 115.532 23.0527C116.118 23.2051 116.807 23.2812 117.598 23.2812C118.395 23.2812 119.083 23.2051 119.663 23.0527C120.249 22.9062 120.697 22.6924 121.008 22.4111C121.324 22.124 121.482 21.7871 121.482 21.4004C121.482 21.0078 121.324 20.6709 121.008 20.3896C120.697 20.1025 120.249 19.8828 119.663 19.7305C119.083 19.5781 118.395 19.502 117.598 19.502ZM117.958 12.1895C118.104 12.5938 118.178 13.0156 118.178 13.4551C118.178 13.8711 118.107 14.2812 117.967 14.6855H121.395V12.1895H117.958ZM133.189 12.6289H125.35V11.5039H128.602V9.27148H129.973V11.5039H133.189V12.6289ZM129.27 13.6836C129.92 13.6836 130.5 13.8359 131.01 14.1406C131.525 14.4395 131.927 14.8584 132.214 15.3975C132.507 15.9365 132.656 16.5488 132.662 17.2344C132.656 17.9258 132.507 18.5439 132.214 19.0889C131.927 19.6279 131.525 20.0527 131.01 20.3633C130.5 20.668 129.92 20.8203 129.27 20.8203C128.625 20.8203 128.048 20.668 127.538 20.3633C127.028 20.0527 126.63 19.625 126.343 19.0801C126.056 18.5352 125.912 17.9199 125.912 17.2344C125.912 16.5547 126.056 15.9453 126.343 15.4062C126.63 14.8613 127.028 14.4395 127.538 14.1406C128.048 13.8359 128.625 13.6836 129.27 13.6836ZM129.27 14.8438C128.865 14.8496 128.499 14.958 128.171 15.1689C127.849 15.374 127.597 15.6582 127.415 16.0215C127.233 16.3789 127.143 16.7832 127.143 17.2344C127.143 17.6914 127.233 18.1016 127.415 18.4648C127.603 18.8281 127.857 19.1123 128.18 19.3174C128.502 19.5166 128.865 19.6133 129.27 19.6074C129.68 19.6133 130.049 19.5166 130.377 19.3174C130.705 19.1123 130.963 18.8281 131.15 18.4648C131.338 18.1016 131.432 17.6914 131.432 17.2344C131.432 16.7832 131.338 16.3789 131.15 16.0215C130.963 15.6582 130.705 15.374 130.377 15.1689C130.049 14.958 129.68 14.8496 129.27 14.8438ZM138.691 24.4238H137.373V16.5312H135.299V23.6504H133.998V9.18359H135.299V15.3887H137.373V8.79688H138.691V24.4238ZM148.834 11.0117C148.828 11.6797 149.089 12.3184 149.616 12.9277C150.144 13.5312 150.832 14.041 151.682 14.457C152.531 14.873 153.416 15.1484 154.336 15.2832L153.826 16.373C153 16.2324 152.203 15.998 151.436 15.6699C150.674 15.3418 149.997 14.9316 149.405 14.4395C148.813 13.9414 148.365 13.3877 148.061 12.7783C147.756 13.3877 147.308 13.9385 146.716 14.4307C146.124 14.9229 145.447 15.3359 144.686 15.6699C143.93 15.998 143.145 16.2324 142.33 16.373L141.785 15.2832C142.699 15.1484 143.581 14.873 144.431 14.457C145.28 14.041 145.969 13.5312 146.496 12.9277C147.023 12.3184 147.287 11.6797 147.287 11.0117V10.9062H142.277V9.78125H153.826V10.9062H148.834V11.0117ZM155.18 18.8516H148.711V24.4238H147.357V18.8516H140.941V17.709H155.18V18.8516ZM161.139 13.2441C161.139 14.0762 161.271 14.9082 161.534 15.7402C161.798 16.5723 162.176 17.3311 162.668 18.0166C163.166 18.7021 163.752 19.2441 164.426 19.6426L163.635 20.7148C162.902 20.2695 162.267 19.6572 161.728 18.8779C161.194 18.0928 160.784 17.2109 160.497 16.2324C160.204 17.2871 159.773 18.2363 159.205 19.0801C158.637 19.9238 157.969 20.5801 157.201 21.0488L156.322 20.0117C157.025 19.6016 157.641 19.042 158.168 18.333C158.695 17.6182 159.1 16.8242 159.381 15.9512C159.662 15.0723 159.803 14.1875 159.803 13.2969V10.2734H161.139V13.2441ZM169.893 24.4238H168.557V8.79688H169.893V24.4238ZM166.658 23.6328H165.357V15.582H162.703V14.4043H165.357V9.13086H166.658V23.6328ZM186.363 22.4199H172.055V21.2598H175.605V17.041C174.926 16.6895 174.398 16.2383 174.023 15.6875C173.648 15.1309 173.461 14.5039 173.461 13.8066C173.461 13.0098 173.704 12.3096 174.19 11.7061C174.677 11.0967 175.351 10.625 176.212 10.291C177.079 9.95703 178.066 9.78711 179.174 9.78125C180.281 9.78711 181.266 9.95703 182.127 10.291C182.994 10.625 183.671 11.0967 184.157 11.7061C184.644 12.3096 184.887 13.0098 184.887 13.8066C184.887 14.4922 184.705 15.1104 184.342 15.6611C183.979 16.2061 183.469 16.6543 182.812 17.0059V21.2598H186.363V22.4199ZM179.174 10.9238C178.324 10.918 177.568 11.0352 176.906 11.2754C176.244 11.5156 175.726 11.8555 175.351 12.2949C174.981 12.7285 174.797 13.2324 174.797 13.8066C174.797 14.3809 174.981 14.8906 175.351 15.3359C175.726 15.7754 176.244 16.1182 176.906 16.3643C177.568 16.6045 178.324 16.7246 179.174 16.7246C180.018 16.7246 180.771 16.6016 181.433 16.3555C182.095 16.1094 182.613 15.7666 182.988 15.3271C183.363 14.8877 183.551 14.3809 183.551 13.8066C183.551 13.2324 183.363 12.7285 182.988 12.2949C182.613 11.8555 182.095 11.5156 181.433 11.2754C180.771 11.0352 180.018 10.918 179.174 10.9238ZM181.424 21.2598V17.542C180.727 17.7236 179.977 17.8145 179.174 17.8145C178.365 17.8145 177.627 17.7266 176.959 17.5508V21.2598H181.424ZM189.264 23.1055C189.059 23.1055 188.868 23.0557 188.692 22.9561C188.522 22.8506 188.385 22.71 188.279 22.5342C188.18 22.3584 188.133 22.168 188.139 21.9629C188.133 21.7637 188.18 21.5791 188.279 21.4092C188.385 21.2334 188.522 21.0957 188.692 20.9961C188.868 20.8906 189.059 20.8379 189.264 20.8379C189.463 20.8379 189.647 20.8906 189.817 20.9961C189.993 21.0957 190.131 21.2334 190.23 21.4092C190.336 21.5791 190.389 21.7637 190.389 21.9629C190.389 22.168 190.336 22.3584 190.23 22.5342C190.131 22.71 189.993 22.8506 189.817 22.9561C189.647 23.0557 189.463 23.1055 189.264 23.1055Z" fill="white"/>
</svg>
