<svg width="158" height="72" viewBox="0 0 158 72" fill="none" xmlns="http://www.w3.org/2000/svg">
<g filter="url(#filter0_d_1641_4155)">
<path fill-rule="evenodd" clip-rule="evenodd" d="M27 0C14.2975 0 4 10.2975 4 23C4 35.7025 14.2974 46 27 46H102.155L110.419 63.7025L122.803 46H131C143.703 46 154 35.7025 154 23C154 10.2975 143.703 0 131 0H27Z" fill="white"/>
</g>
<path d="M42.7344 21.0781V23.2109H39.5938V34.0391H36.9922V12.8984H39.5938V21.0781H42.7344ZM26.3281 14.9609V26.6562C29.1523 26.6094 32.1641 26.3633 35.3516 25.6953L35.6328 27.8984C32.0703 28.6016 28.6719 28.8125 25.5312 28.8125H23.75V14.9609H26.3281ZM49.4375 14.4453C52.625 14.4453 54.9219 17.3516 54.9453 21.9219C54.9219 26.5391 52.625 29.4219 49.4375 29.4219C46.2266 29.4219 43.9062 26.5391 43.9297 21.9219C43.9062 17.3516 46.2266 14.4453 49.4375 14.4453ZM49.4375 16.7891C47.6562 16.7891 46.4375 18.6875 46.4375 21.9219C46.4375 25.1797 47.6562 27.0781 49.4375 27.0781C51.2422 27.0781 52.4375 25.1797 52.4375 21.9219C52.4375 18.6875 51.2422 16.7891 49.4375 16.7891ZM63.4766 17.9609V20.1406H60.3359V24.2188H63.4766V26.3516H60.3359V34.0859H57.7344V12.8984H60.3359V17.9609H63.4766ZM88.2969 12.9219V25.8125H85.8125V20.5391H83.7969V25.7188H81.3594V13.2266H83.7969V18.4062H85.8125V12.9219H88.2969ZM88.2969 26.7969V33.8281H74V26.7969H88.2969ZM76.5781 28.8594V31.7188H85.7422V28.8594H76.5781ZM80.6094 15.0781V17.1406H70.0625V15.0781H74.0703V13.0156H76.6484V15.0781H80.6094ZM75.3594 17.9375C78.0547 17.9609 79.9531 19.4141 79.9766 21.6172C79.9531 23.7969 78.0547 25.2969 75.3594 25.2969C72.7109 25.2969 70.7891 23.7969 70.8125 21.6172C70.7891 19.4141 72.7109 17.9609 75.3594 17.9375ZM75.3594 19.8359C74.0469 19.8359 73.1328 20.4688 73.1328 21.6172C73.1328 22.7188 74.0234 23.3984 75.3594 23.3984C76.6953 23.3984 77.6094 22.7188 77.6094 21.6172C77.6094 20.4688 76.6953 19.8359 75.3594 19.8359ZM108.688 12.8984V34.1094H106.109V22.625H101.797V28.9766H91.7188V14.5391H94.3438V19.8125H99.2422V14.5391H101.797V20.4922H106.109V12.8984H108.688ZM94.3438 26.8906H99.2422V21.8516H94.3438V26.8906ZM129.406 12.8984V34.0859H126.805V23.3047H122.328V21.1719H126.805V12.8984H129.406ZM122.422 15.1484C122.398 21.4062 120.172 26.6562 112.883 30.2656L111.523 28.2266C117.008 25.543 119.363 21.957 119.797 17.2109H112.508V15.1484H122.422Z" fill="#060606"/>
<defs>
<filter id="filter0_d_1641_4155" x="0" y="0" width="158" height="71.7025" filterUnits="userSpaceOnUse" color-interpolation-filters="sRGB">
<feFlood flood-opacity="0" result="BackgroundImageFix"/>
<feColorMatrix in="SourceAlpha" type="matrix" values="0 0 0 0 0 0 0 0 0 0 0 0 0 0 0 0 0 0 127 0" result="hardAlpha"/>
<feOffset dy="4"/>
<feGaussianBlur stdDeviation="2"/>
<feComposite in2="hardAlpha" operator="out"/>
<feColorMatrix type="matrix" values="0 0 0 0 0 0 0 0 0 0 0 0 0 0 0 0 0 0 0.25 0"/>
<feBlend mode="normal" in2="BackgroundImageFix" result="effect1_dropShadow_1641_4155"/>
<feBlend mode="normal" in="SourceGraphic" in2="effect1_dropShadow_1641_4155" result="shape"/>
</filter>
</defs>
</svg>
