<svg width="356" height="368" viewBox="0 0 356 368" fill="none" xmlns="http://www.w3.org/2000/svg">
<g filter="url(#filter0_f_898_3512)">
<path d="M103.325 281.214C85.1227 273.212 87.235 259.109 94.3713 234.802L262.695 235.762C264.479 254.942 265.679 256.247 264.187 272.572C262.695 288.896 235.237 287.936 220.016 289.856C204.796 291.777 121.527 289.216 103.325 281.214Z" fill="#FFC875"/>
<path d="M111.969 254.007C91.9239 243.297 90.0913 230.479 94.3604 202.153C154.151 215.43 188.183 218.455 251.056 205.034C259.46 220.809 265.381 227.44 262.098 239.283C258.815 251.126 248.04 251.621 227.776 256.888C173.574 267.97 150.395 264.38 111.969 254.007Z" fill="#AA7857"/>
<path d="M88.1069 223.28C72.0016 213.956 74.7843 207.136 88.1069 193.832L267.171 192.231L267.467 192.765C277.881 211.491 283.805 222.145 271.946 228.401C262.546 231.978 257.853 231.405 250.159 227.441C246.725 235.993 242.823 238.649 237.027 239.924C227.869 241.85 224.055 240.571 217.627 234.163C213.735 237.48 211.281 238.918 205.689 240.244C198.875 240.977 195.401 239.635 189.871 234.803L136.747 226.16C132.035 236.293 124.809 241.845 116.452 240.564C108.095 239.284 101.926 231.131 98.5448 223.28C94.7571 224.119 92.5563 224.405 88.1069 223.28Z" fill="#A3CF76"/>
<path d="M157.038 252.407C149.875 252.727 120.627 206.955 120.627 206.955L221.802 211.116C205.368 226.851 164.201 252.087 157.038 252.407Z" fill="#FFEA00"/>
<path d="M96.1412 202.474C85.745 197.345 86.1779 188.258 90.4706 168.545C97.1122 179.147 102.863 183.152 121.23 182.629C178.598 200.091 210.785 196.478 269.561 166.944C272.269 178.013 272.374 184.07 265.682 194.152C258.567 202.269 250.781 205.423 230.762 208.876C195.592 216.341 158.411 214.158 96.1412 202.474Z" fill="#F25954"/>
<path d="M159.327 79.557C105.993 90.6851 83.9526 149.311 88.3481 164.178C92.7437 179.044 92.8421 175.157 98.3154 179.416C105.492 184.017 110.356 185.605 121.874 184.604C130.888 187.279 134.806 188.649 150.266 192.061C170.862 196.34 184.69 196.765 215.809 192.061C253.338 185.997 268.306 179.994 275.31 160.936C278.729 139.697 264.88 119.783 243.596 102.252C214.25 77.7586 195.689 73.269 159.327 79.557Z" fill="#FDC975"/>
<ellipse cx="168.978" cy="143.578" rx="5.37215" ry="5.76154" fill="black"/>
<ellipse cx="196.437" cy="143.578" rx="5.37215" ry="5.76154" fill="black"/>
<ellipse cx="183.009" cy="157.341" rx="2.08917" ry="2.2406" fill="black"/>
<path d="M170.176 166.304C180.698 170.985 186.681 172.007 198.191 164.704" stroke="black" stroke-width="0.5"/>
<ellipse cx="162.714" cy="156.381" rx="5.6706" ry="1.92051" fill="#FEACAC" fill-opacity="0.8"/>
<ellipse cx="205.089" cy="156.381" rx="5.6706" ry="1.92051" fill="#FEACAC" fill-opacity="0.8"/>
</g>
<g filter="url(#filter1_f_898_3512)">
<path d="M261.764 201.237C269.417 200.677 285.975 196.872 290.985 186.127M290.985 186.127C288.202 182.956 284.827 177.285 293.594 179.971C293.594 179.076 292.898 175.494 292.55 173.815C292.724 172.51 293.385 170.681 294.637 173.815C295.89 176.949 296.203 179.225 296.203 179.971L299.333 173.815C300.377 172.696 302.36 171.465 301.942 175.494L299.333 180.531C301.073 184.075 301.838 190.156 290.985 186.127Z" stroke="black"/>
</g>
<g filter="url(#filter2_f_898_3512)">
<path d="M92.2363 204.646C84.5832 204.086 68.0247 200.281 63.0154 189.536M63.0154 189.536C65.7983 186.365 69.1727 180.694 60.4064 183.38C60.4064 182.485 61.1021 178.903 61.45 177.225C61.2761 175.919 60.6151 174.091 59.3628 177.225C58.1105 180.358 57.7974 182.634 57.7974 183.38L54.6666 177.225C53.623 176.105 51.6401 174.874 52.0576 178.903L54.6666 183.94C52.9272 187.484 52.1619 193.566 63.0154 189.536Z" stroke="black"/>
</g>
<g filter="url(#filter3_f_898_3512)">
<path d="M150.4 282.941C154.226 298.424 158.331 326.704 144.138 315.959M144.138 315.959C139.616 313.348 131.928 310.923 137.355 322.115C142.782 333.308 144.138 322.675 144.138 315.959Z" stroke="black"/>
</g>
<g filter="url(#filter4_f_898_3512)">
<path d="M205.93 282.941C202.104 298.424 197.999 326.704 212.192 315.959M212.192 315.959C216.714 313.348 224.402 310.923 218.975 322.115C213.549 333.308 212.192 322.675 212.192 315.959Z" stroke="black"/>
</g>
<defs>
<filter id="filter0_f_898_3512" x="0.346878" y="0.300003" width="354.849" height="366.865" filterUnits="userSpaceOnUse" color-interpolation-filters="sRGB">
<feFlood flood-opacity="0" result="BackgroundImageFix"/>
<feBlend mode="normal" in="SourceGraphic" in2="BackgroundImageFix" result="shape"/>
<feGaussianBlur stdDeviation="38.35" result="effect1_foregroundBlur_898_3512"/>
</filter>
<filter id="filter1_f_898_3512" x="238.127" y="147.985" width="87.9734" height="77.3504" filterUnits="userSpaceOnUse" color-interpolation-filters="sRGB">
<feFlood flood-opacity="0" result="BackgroundImageFix"/>
<feBlend mode="normal" in="SourceGraphic" in2="BackgroundImageFix" result="shape"/>
<feGaussianBlur stdDeviation="11.8" result="effect1_foregroundBlur_898_3512"/>
</filter>
<filter id="filter2_f_898_3512" x="27.9" y="151.394" width="87.9734" height="77.3504" filterUnits="userSpaceOnUse" color-interpolation-filters="sRGB">
<feFlood flood-opacity="0" result="BackgroundImageFix"/>
<feBlend mode="normal" in="SourceGraphic" in2="BackgroundImageFix" result="shape"/>
<feGaussianBlur stdDeviation="11.8" result="effect1_foregroundBlur_898_3512"/>
</filter>
<filter id="filter3_f_898_3512" x="111.388" y="259.221" width="66.7625" height="91.8787" filterUnits="userSpaceOnUse" color-interpolation-filters="sRGB">
<feFlood flood-opacity="0" result="BackgroundImageFix"/>
<feBlend mode="normal" in="SourceGraphic" in2="BackgroundImageFix" result="shape"/>
<feGaussianBlur stdDeviation="11.8" result="effect1_foregroundBlur_898_3512"/>
</filter>
<filter id="filter4_f_898_3512" x="178.179" y="259.221" width="66.7625" height="91.8787" filterUnits="userSpaceOnUse" color-interpolation-filters="sRGB">
<feFlood flood-opacity="0" result="BackgroundImageFix"/>
<feBlend mode="normal" in="SourceGraphic" in2="BackgroundImageFix" result="shape"/>
<feGaussianBlur stdDeviation="11.8" result="effect1_foregroundBlur_898_3512"/>
</filter>
</defs>
</svg>
