<svg width="310" height="170" viewBox="0 0 310 170" fill="none" xmlns="http://www.w3.org/2000/svg">
<path d="M141.063 0.235352L309.407 12.2644L265.256 30.7955L74.3613 18.4414L141.063 0.235352Z" fill="#858383"/>
<path d="M85.6113 30.9414L253.955 42.6453V168.462L85.6113 147.005V30.9414Z" fill="url(#paint0_linear_1289_3528)"/>
<path d="M264.442 30.6073L308.91 11.751V132.041L264.442 169.429V30.6073Z" fill="#6B6B6B"/>
<path fill-rule="evenodd" clip-rule="evenodd" d="M264.939 31.149L74.3613 18.4697V148.038L264.939 169.645V31.149ZM253.618 42.5282L85.2744 30.8243V146.888L253.618 168.345V42.5282Z" fill="#E7E7E7"/>
<path d="M168.977 105.232L173.096 91.252L253.611 155.298V168.353L168.977 105.232Z" fill="#26272B"/>
<path d="M0.863281 85.0615L168.999 104.906L253.613 168.353L85.2383 149.161L0.863281 85.0615Z" fill="#D0C9C3"/>
<path d="M4.23633 73.9307L173.772 91.2516L169.416 105.231L0.486328 85.0617L4.23633 73.9307Z" fill="#797A7D"/>
<path d="M25.5398 96.2267L42.4748 98.3307L38.1444 105.876L21.4642 103.181L25.5398 96.2267Z" fill="#BCB8B0"/>
<path d="M139.654 107.677L158.624 110.055L150.914 117.234L132.307 115.084L139.654 107.677Z" fill="#BCB8B0"/>
<path d="M21.6834 102.317L151.532 116.871V116.871C147.339 121.455 141.183 123.703 135.051 122.889L24.5633 108.231C21.769 107.86 20.2615 104.765 21.6834 102.317V102.317Z" fill="#BCB8B0"/>
<path d="M21.5713 105.399L142.222 122.049L141.712 123.231L26.3171 109.385C24.0824 109.117 22.2224 107.555 21.5713 105.399V105.399Z" fill="#E8E1DB"/>
<path d="M138.008 122.909L144.059 122.073C144.806 121.969 145.505 121.643 146.066 121.137L158.298 110.1L163.711 113.242L153.858 121.391C151.898 123.012 149.387 123.807 146.861 123.608L138.008 122.909Z" fill="#B1A79B"/>
<defs>
<linearGradient id="paint0_linear_1289_3528" x1="169.783" y1="168.462" x2="169.783" y2="30.9414" gradientUnits="userSpaceOnUse">
<stop stop-color="#2B2C30"/>
<stop offset="1" stop-color="#868A96"/>
</linearGradient>
</defs>
</svg>
