<svg width="349" height="246" viewBox="0 0 349 246" fill="none" xmlns="http://www.w3.org/2000/svg">
<path d="M0 26.3877L282.726 44.7649V245.5L0 209.688V26.3877Z" fill="#E2DBD3"/>
<path d="M98.9539 0L348.695 17.4347L283.197 44.2937L0 26.3877L98.9539 0Z" fill="#858383"/>
<path d="M282.727 44.293L348.696 16.9629V191.31L282.727 245.499V44.293Z" fill="#6B6B6B"/>
<path d="M99.8965 40.5244L181.887 45.2365V70.2106L99.8965 62.6712V40.5244Z" fill="#272727"/>
<circle cx="207.806" cy="60.786" r="9.89539" fill="#B8B1A9"/>
<circle cx="204.034" cy="60.786" r="9.89539" fill="#F7F7F7"/>
<path d="M32.043 89.5293L238.433 106.493V191.782L32.043 168.221V89.5293Z" fill="#2B2C30"/>
<path d="M282.727 43.8223L348.696 17.4346" stroke="#B1B1B1"/>
<path d="M4.71289 65.9688L256.81 84.8171V91.414L4.71289 71.1521V65.9688Z" fill="#EFE8E0"/>
<path d="M256.809 84.8184L278.484 88.1168V98.4834L256.809 91.4153V84.8184Z" fill="#C1BAB2"/>
<path d="M4.71289 70.21L37.6975 73.5084L45.7081 78.6917L11.3098 75.3933L4.71289 70.21Z" fill="#BFB8B0"/>
<path d="M234.66 89.5293L255.865 90.1491L278.011 98.4823L242.671 96.1262L234.66 89.5293Z" fill="#B3A9A0"/>
<path d="M20.7387 58.4297C26.9857 58.4297 32.0477 53.3628 32.0477 47.119C32.0477 40.8724 26.9857 35.8116 20.7387 35.8116C14.4933 35.8116 9.42969 40.8724 9.42969 47.119C9.42969 53.3628 14.4933 58.4297 20.7387 58.4297Z" fill="#B7B7B7"/>
<path d="M20.3613 42.19V52.1582H23.5333V51.2706H21.2671V42.19H20.3613Z" fill="white"/>
<path d="M17.189 44.9111C17.9443 44.9111 18.5561 44.3002 18.5561 43.5496C18.5561 42.7954 17.9443 42.184 17.189 42.184C16.4396 42.184 15.8262 42.7954 15.8262 43.5496C15.8262 44.3002 16.4396 44.9111 17.189 44.9111Z" fill="white"/>
<path d="M21.2682 37.6679C21.1517 37.6629 20.9246 37.6595 20.8153 37.6595C15.5625 37.6595 11.2871 41.9305 11.2871 47.1792C11.2871 49.7219 12.2757 52.1098 14.0728 53.907C15.879 55.7054 18.2737 56.6943 20.8153 56.6943C23.3572 56.6943 25.7523 55.7054 27.5582 53.907C29.3536 52.1098 30.3426 49.7219 30.3426 47.1792V46.7448L29.9629 46.7477H23.5415V47.6311H29.4384V47.7591C29.1357 52.2477 25.3839 55.8059 20.8153 55.8059C18.5087 55.8059 16.3398 54.9092 14.7079 53.2802C13.075 51.6508 12.1763 49.4831 12.1763 47.1792C12.1763 44.8741 13.075 42.7068 14.7079 41.0787C16.3398 39.446 18.5087 38.5497 20.8153 38.5497C20.9196 38.5497 21.1646 38.5517 21.2682 38.5542V37.6679Z" fill="white"/>
<path d="M39.4944 55.3205L40.1543 41.1953L42.6906 41.3137L42.1309 53.2929L48.3741 53.5845L48.2739 55.7306L39.4944 55.3205ZM59.6488 46.6226C59.2702 45.0994 58.1425 44.1277 56.4256 44.0475C54.1429 43.9409 52.4212 45.6397 52.2726 48.8198C52.1222 52.039 53.6586 53.89 56.0193 54.0003C58.1459 54.0997 59.5717 52.8758 59.7046 50.8681L56.427 50.715L56.5208 48.7055L62.2568 48.9734L62.1775 50.6708C62.008 54.2997 59.4049 56.4461 55.9127 56.283C52.0107 56.1007 49.5062 53.2073 49.7159 48.72C49.9273 44.1936 52.8058 41.5908 56.5127 41.7639C59.6343 41.9098 61.9438 43.9534 62.2436 46.7438L59.6488 46.6226Z" fill="#B7B7B7"/>
<path d="M117.735 209.096L114.622 208.84L115.375 199.68L118.538 199.94C121.271 200.164 122.787 202.021 122.553 204.868C122.318 207.728 120.518 209.325 117.735 209.096ZM116.385 207.546L117.764 207.659C119.674 207.816 120.735 206.846 120.909 204.733C121.081 202.632 120.192 201.515 118.332 201.362L116.903 201.245L116.385 207.546ZM126.029 200.555L125.276 209.716L123.631 209.581L124.384 200.42L126.029 200.555ZM135.534 205.948C135.291 208.908 133.351 210.507 130.947 210.309C128.543 210.112 126.89 208.205 127.133 205.257C127.376 202.296 129.316 200.698 131.72 200.896C134.124 201.093 135.777 202.987 135.534 205.948ZM133.877 205.811C134.048 203.724 133.092 202.499 131.599 202.376C130.106 202.253 128.962 203.306 128.79 205.393C128.619 207.481 129.575 208.706 131.068 208.829C132.561 208.951 133.705 207.899 133.877 205.811ZM142.156 204.416C142.145 203.625 141.512 203.114 140.525 203.033C139.487 202.948 138.813 203.402 138.757 204.085C138.694 204.857 139.477 205.24 140.222 205.479L141.064 205.778C142.404 206.207 143.661 207.036 143.53 208.63C143.398 210.237 142.042 211.234 139.84 211.053C137.702 210.877 136.445 209.742 136.518 207.926L138.137 208.06C138.134 209.027 138.906 209.562 139.943 209.647C141.031 209.737 141.821 209.267 141.886 208.482C141.945 207.761 141.3 207.402 140.333 207.068L139.318 206.717C137.844 206.201 136.97 205.365 137.079 204.049C137.212 202.43 138.742 201.473 140.666 201.631C142.614 201.791 143.84 203 143.738 204.546L142.156 204.416Z" fill="#B7B7B7"/>
</svg>
