<svg width="242" height="224" viewBox="0 0 242 224" fill="none" xmlns="http://www.w3.org/2000/svg">
<path d="M50.1787 182.457C32.7371 175.307 34.7611 162.707 41.5992 140.99L202.89 141.847C204.599 158.984 205.75 160.15 204.32 174.735C202.89 189.321 176.579 188.463 161.994 190.178C147.41 191.894 67.6203 189.607 50.1787 182.457Z" fill="#FFC875"/>
<path d="M58.4613 158.148C39.2536 148.579 37.4975 137.127 41.5883 111.819C98.8805 123.682 131.491 126.384 191.736 114.393C199.79 128.487 205.463 134.412 202.318 144.993C199.172 155.574 188.847 156.016 169.43 160.722C117.492 170.623 95.2812 167.416 58.4613 158.148Z" fill="#AA7857"/>
<path d="M35.5979 130.694C20.1655 122.364 22.8319 116.27 35.5979 104.384L207.18 102.954L207.464 103.431C217.442 120.161 223.119 129.68 211.755 135.27C202.748 138.465 198.252 137.953 190.879 134.412C187.588 142.053 183.85 144.426 178.296 145.565C169.52 147.286 165.866 146.144 159.707 140.418C155.977 143.381 153.626 144.666 148.267 145.851C141.737 146.506 138.409 145.307 133.11 140.99L82.2054 133.268C77.6901 142.321 70.7661 147.281 62.7586 146.137C54.7511 144.993 48.8397 137.709 45.5997 130.694C41.9703 131.444 39.8614 131.7 35.5979 130.694Z" fill="#A3CF76"/>
<path d="M101.652 156.719C94.788 157.005 66.7617 116.109 66.7617 116.109L163.71 119.827C147.962 133.885 108.515 156.433 101.652 156.719Z" fill="#FFEA00"/>
<path d="M43.2968 112.105C33.335 107.523 33.7497 99.4041 37.8631 81.7909C44.2272 91.2637 49.7375 94.8418 67.3377 94.3741C122.308 109.976 153.151 106.748 209.471 80.361C212.065 90.2502 212.167 95.6622 205.753 104.669C198.936 111.922 191.475 114.74 172.293 117.825C138.592 124.495 102.964 122.544 43.2968 112.105Z" fill="#F25954"/>
<path d="M103.841 2.28458C52.7347 12.2271 31.6154 64.6069 35.8273 77.8894C40.0392 91.1719 40.1335 87.6991 45.3781 91.5046C52.2545 95.6152 56.9152 97.0339 67.9528 96.1394C76.5894 98.5297 80.3443 99.7539 95.1582 102.802C114.893 106.625 128.144 107.005 157.962 102.802C193.923 97.3843 208.266 92.0206 214.978 74.9931C218.253 56.017 204.984 38.2251 184.589 22.5617C156.469 0.677776 138.684 -3.33353 103.841 2.28458Z" fill="#FDC975"/>
<circle cx="113.089" cy="59.4844" r="5.14769" fill="black"/>
<circle cx="139.402" cy="59.4844" r="5.14769" fill="black"/>
<circle cx="126.537" cy="71.7817" r="2.00188" fill="black"/>
<path d="M114.238 79.7888C124.321 83.9714 130.054 84.8842 141.083 78.3592" stroke="black" stroke-width="0.5"/>
<ellipse cx="107.086" cy="70.9234" rx="5.43367" ry="1.71589" fill="#FEACAC" fill-opacity="0.8"/>
<ellipse cx="147.691" cy="70.9234" rx="5.43367" ry="1.71589" fill="#FEACAC" fill-opacity="0.8"/>
<path d="M202 111C209.333 110.5 225.2 107.1 230 97.5001M230 97.5001C227.333 94.6667 224.1 89.6001 232.5 92.0001C232.5 91.2001 231.833 88.0001 231.5 86.5001C231.667 85.3335 232.3 83.7001 233.5 86.5001C234.7 89.3001 235 91.3334 235 92.0001L238 86.5001C239 85.5001 240.9 84.4 240.5 88L238 92.5C239.667 95.6667 240.4 101.1 230 97.5001Z" stroke="black"/>
<path d="M39.5547 114.046C32.2214 113.546 16.3547 110.146 11.5547 100.546M11.5547 100.546C14.2214 97.7126 17.4547 92.646 9.05469 95.046C9.05469 94.246 9.72135 91.046 10.0547 89.546C9.88802 88.3794 9.25469 86.746 8.05469 89.546C6.85469 92.346 6.55469 94.3793 6.55469 95.046L3.55469 89.546C2.55469 88.546 0.654687 87.4459 1.05469 91.0459L3.55469 95.5459C1.88802 98.7126 1.15469 104.146 11.5547 100.546Z" stroke="black"/>
<path d="M95.2885 184C98.9552 197.833 102.889 223.1 89.2885 213.5M89.2885 213.5C84.9552 211.167 77.5885 209 82.7885 219C87.9885 229 89.2885 219.5 89.2885 213.5Z" stroke="black"/>
<path d="M148.497 184C144.83 197.833 140.897 223.1 154.497 213.5M154.497 213.5C158.83 211.167 166.197 209 160.997 219C155.797 229 154.497 219.5 154.497 213.5Z" stroke="black"/>
</svg>
